<?xml version="1.0" standalone="no"?>
<!DOCTYPE svg PUBLIC "-//W3C//DTD SVG 20010904//EN"
 "http://www.w3.org/TR/2001/REC-SVG-20010904/DTD/svg10.dtd">
<svg version="1.0" xmlns="http://www.w3.org/2000/svg"
 width="2048.000000pt" height="2048.000000pt" viewBox="0 0 2048.000000 2048.000000"
 preserveAspectRatio="xMidYMid meet">
<metadata>
Created by potrace 1.16, written by Peter Selinger 2001-2019
</metadata>
<g transform="translate(0.000000,2048.000000) scale(0.100000,-0.100000)"
fill="#000000" stroke="none">
<path d="M10858 20440 c-229 -21 -439 -43 -467 -50 -29 -7 -93 -39 -148 -73
-53 -33 -133 -75 -177 -92 -145 -57 -163 -71 -240 -190 -48 -74 -62 -86 -168
-158 -123 -82 -168 -125 -283 -277 -125 -165 -213 -239 -283 -240 -33 0 -93
27 -125 58 -38 36 -75 109 -99 197 -37 135 -86 177 -223 190 -115 11 -165 30
-266 101 -139 99 -158 110 -250 142 -46 17 -118 46 -160 66 -101 47 -177 58
-314 46 -61 -5 -317 -28 -570 -50 -889 -77 -862 -74 -953 -108 -28 -11 -95
-47 -149 -80 -54 -33 -132 -79 -172 -102 -76 -44 -195 -155 -332 -310 -51 -58
-86 -86 -150 -122 -92 -51 -113 -70 -181 -169 -55 -78 -96 -108 -208 -150
-130 -49 -168 -78 -266 -204 -21 -27 -71 -88 -110 -135 -109 -131 -141 -186
-193 -332 -31 -89 -72 -179 -121 -264 -139 -243 -152 -269 -231 -463 -100
-246 -104 -271 -89 -477 14 -181 10 -216 -40 -346 -62 -162 -67 -64 71 -1613
32 -360 37 -384 120 -512 62 -95 76 -156 99 -416 23 -260 42 -371 72 -431 33
-65 112 -178 173 -247 69 -78 95 -127 95 -176 0 -53 -27 -92 -109 -157 -67
-54 -73 -62 -134 -189 -35 -72 -81 -176 -102 -230 -41 -106 -61 -132 -162
-209 -34 -26 -69 -61 -78 -79 -10 -19 -20 -73 -24 -138 -10 -122 -20 -147
-106 -260 -61 -80 -93 -138 -126 -227 -27 -72 -72 -122 -157 -172 -73 -44
-125 -94 -223 -217 -124 -155 -139 -198 -136 -390 1 -128 1 -132 -37 -235 -21
-58 -50 -152 -65 -210 -15 -58 -38 -132 -50 -164 -12 -33 -29 -107 -37 -164
-18 -134 -21 -142 -60 -232 -39 -92 -61 -166 -70 -245 -4 -33 -18 -91 -31
-130 -46 -131 -61 -194 -72 -301 -13 -129 -32 -175 -124 -299 -37 -50 -81
-124 -98 -165 -50 -120 -88 -190 -140 -261 -49 -66 -80 -127 -139 -271 -63
-155 -134 -240 -264 -315 -141 -81 -187 -137 -236 -288 -12 -38 -38 -107 -56
-153 -21 -49 -40 -121 -49 -180 -16 -105 -28 -148 -70 -257 -22 -56 -28 -86
-28 -150 1 -93 16 -140 71 -222 21 -32 60 -96 86 -142 26 -46 62 -104 80 -130
18 -25 52 -82 76 -126 24 -44 60 -105 80 -135 20 -30 50 -80 68 -110 38 -67
94 -124 144 -145 21 -8 81 -20 134 -25 81 -9 119 -19 247 -71 83 -33 173 -72
199 -85 89 -45 147 -63 235 -74 100 -12 182 -46 212 -88 35 -49 50 -119 70
-315 27 -263 59 -390 122 -493 31 -51 66 -154 83 -246 20 -106 36 -146 90
-223 24 -33 63 -99 88 -146 25 -48 64 -111 87 -141 63 -84 71 -112 96 -361 24
-235 40 -265 222 -432 146 -134 164 -145 301 -199 207 -81 350 -199 431 -355
38 -73 64 -104 238 -277 195 -194 233 -224 379 -297 28 -14 93 -38 145 -53
105 -30 359 -139 431 -185 63 -41 115 -100 146 -168 22 -48 26 -73 30 -186 3
-110 1 -143 -18 -215 -29 -114 -28 -153 10 -241 22 -51 35 -102 41 -164 6 -49
21 -157 35 -240 13 -82 31 -201 39 -263 17 -137 44 -201 116 -277 76 -80 134
-105 266 -115 135 -10 184 -29 301 -113 156 -112 127 -107 668 -107 l466 0 66
39 c37 22 103 67 147 100 88 67 129 84 255 106 68 12 112 28 225 85 120 60
156 73 250 91 61 12 132 32 158 45 51 26 130 101 215 203 62 74 83 112 123
229 47 132 84 188 173 255 28 22 65 40 98 46 60 12 535 58 705 68 182 10 227
-12 326 -160 57 -85 181 -207 284 -281 28 -20 98 -56 155 -80 57 -23 150 -71
207 -105 57 -35 159 -85 228 -112 69 -27 146 -60 172 -73 56 -29 99 -41 215
-61 49 -9 123 -29 165 -45 145 -57 159 -58 623 -17 437 39 478 46 577 103 92
53 198 140 311 255 72 73 139 131 180 155 35 21 98 66 140 99 41 33 106 82
143 109 90 63 112 99 147 242 16 65 39 146 51 179 39 112 38 234 -12 757 -30
318 -17 370 129 509 48 46 123 124 166 174 124 140 139 149 281 180 142 31
186 65 371 285 171 204 184 230 194 387 8 132 29 185 110 275 67 75 98 93 216
124 196 51 252 109 359 369 31 77 71 185 89 240 18 55 51 132 72 170 l39 70 1
190 1 190 39 95 39 95 0 250 c0 234 1 254 22 305 78 196 75 185 74 335 -1 165
12 225 61 272 45 43 89 60 205 78 182 27 218 47 361 208 164 185 213 231 287
272 39 21 108 64 155 95 47 31 112 74 145 96 64 42 85 75 161 254 60 142 65
161 74 277 6 81 17 138 41 210 25 77 32 115 32 178 0 112 -23 163 -155 352
-122 175 -138 205 -175 331 -38 132 -70 188 -153 273 -83 84 -148 123 -270
159 -103 31 -125 43 -203 119 -80 77 -104 115 -147 231 -46 127 -66 154 -204
283 -199 188 -267 303 -296 511 -15 103 -31 145 -90 242 -56 92 -69 123 -100
250 -13 54 -46 139 -85 219 -35 72 -75 165 -90 208 -15 43 -47 104 -71 137
-62 85 -80 125 -113 253 -19 75 -48 151 -84 223 -30 60 -66 146 -81 192 -20
59 -46 107 -92 172 -35 49 -81 118 -101 152 -20 35 -57 95 -83 133 -26 39 -62
99 -81 135 -38 71 -112 153 -174 191 -22 14 -73 37 -114 52 -120 44 -160 84
-216 218 -35 82 -55 106 -138 169 -66 50 -93 84 -168 214 -43 73 -107 131
-207 184 -82 43 -115 72 -127 110 -10 32 39 190 93 302 25 52 56 131 68 175
12 44 39 118 59 164 48 108 49 141 11 585 -28 320 -29 345 -16 445 8 58 15
171 15 251 1 80 7 224 14 320 17 226 17 360 -3 540 -9 80 -21 204 -27 275 -6
72 -21 168 -34 215 -63 235 -80 292 -116 378 -55 133 -57 142 -84 439 -14 147
-30 293 -36 323 -16 81 -61 157 -148 252 -134 146 -216 263 -336 478 -45 81
-77 123 -138 182 -104 101 -167 142 -300 195 -166 65 -276 140 -468 318 -142
132 -206 163 -359 176 -94 8 -129 16 -199 46 -47 19 -134 55 -194 78 -59 24
-150 71 -202 104 -172 112 -168 111 -405 110 -149 -1 -320 -12 -622 -39z m474
-841 c29 -6 91 -28 138 -48 l85 -36 180 0 180 0 64 -35 c87 -47 270 -228 350
-346 68 -101 146 -181 208 -212 22 -12 87 -33 143 -47 116 -28 148 -45 238
-127 36 -32 94 -75 131 -95 145 -79 164 -101 206 -230 14 -44 49 -119 77 -165
70 -114 86 -159 108 -311 19 -126 23 -138 84 -259 36 -70 72 -151 80 -180 9
-29 24 -154 36 -278 11 -124 40 -457 66 -740 25 -283 46 -562 47 -620 0 -97
-3 -113 -39 -215 l-39 -110 0 -235 -1 -235 -44 -105 -44 -105 -2 -177 c-3
-217 -6 -226 -113 -306 -41 -32 -85 -72 -98 -90 -58 -87 -26 -318 55 -395 15
-14 63 -50 107 -79 107 -72 128 -105 168 -263 41 -164 67 -210 160 -279 85
-63 102 -81 152 -160 20 -33 105 -127 189 -210 101 -100 175 -185 221 -251 38
-55 122 -154 186 -220 145 -150 165 -187 190 -351 20 -135 35 -180 90 -271 60
-98 76 -134 104 -233 32 -113 48 -146 137 -277 76 -112 106 -141 179 -179 61
-30 115 -78 136 -118 9 -17 29 -70 44 -118 18 -54 50 -122 84 -176 60 -94 92
-183 120 -337 9 -50 32 -126 52 -170 74 -167 84 -197 98 -297 23 -152 38 -195
107 -302 35 -53 80 -123 100 -156 30 -48 54 -71 120 -114 46 -30 120 -92 165
-139 45 -46 117 -109 161 -140 104 -73 183 -161 297 -332 51 -77 113 -169 138
-205 24 -36 68 -109 96 -163 69 -133 70 -174 5 -308 -25 -52 -59 -127 -74
-167 -16 -40 -41 -94 -56 -120 -37 -63 -126 -156 -194 -202 -126 -85 -307
-181 -399 -211 -153 -49 -177 -67 -349 -267 -117 -136 -117 -135 -119 -341 -3
-211 -9 -229 -112 -313 -90 -74 -108 -110 -121 -240 -16 -152 -67 -441 -96
-538 -14 -47 -40 -125 -59 -175 -52 -137 -55 -161 -54 -332 2 -169 -4 -203
-50 -305 -15 -35 -42 -106 -60 -158 -43 -126 -86 -187 -204 -290 -70 -60 -113
-107 -146 -160 -57 -89 -95 -125 -176 -171 -104 -58 -185 -156 -235 -284 -37
-96 -55 -119 -138 -176 -42 -29 -123 -97 -180 -151 -91 -88 -115 -104 -217
-153 -64 -31 -146 -75 -183 -99 -37 -24 -111 -59 -164 -78 -54 -20 -137 -58
-185 -86 -104 -60 -164 -78 -298 -91 -138 -14 -194 -33 -308 -103 -54 -33
-132 -73 -173 -88 -141 -53 -167 -89 -209 -290 -47 -221 -50 -258 -32 -321 34
-116 135 -219 234 -239 70 -15 258 2 318 29 25 11 73 40 107 64 106 75 178 83
244 25 45 -39 61 -97 75 -267 21 -249 5 -311 -122 -478 -136 -179 -217 -233
-361 -241 -129 -7 -199 10 -340 78 -106 52 -135 61 -212 70 -113 14 -176 36
-265 94 -92 59 -131 78 -216 106 -163 53 -249 126 -317 269 -54 116 -133 243
-185 301 -33 37 -62 56 -121 80 -42 18 -105 47 -138 66 -76 42 -159 64 -239
64 -33 0 -164 -9 -290 -20 -127 -11 -410 -36 -630 -55 -220 -19 -418 -40 -440
-46 -54 -15 -78 -29 -158 -87 -37 -28 -107 -72 -154 -99 -63 -36 -105 -69
-162 -129 -88 -94 -125 -152 -187 -295 -28 -66 -59 -118 -82 -142 -54 -55
-181 -134 -304 -188 -63 -27 -134 -68 -170 -97 -143 -112 -305 -210 -383 -231
-61 -16 -365 -42 -411 -35 -70 10 -114 44 -194 146 -41 53 -96 122 -122 155
-58 71 -106 166 -148 298 -55 170 -49 256 20 307 67 49 144 31 272 -64 126
-94 172 -105 266 -70 94 36 243 160 300 250 38 60 102 261 102 322 0 70 -39
136 -130 224 -94 90 -139 119 -215 141 -50 15 -71 15 -175 5 -149 -15 -203 -5
-325 60 -157 84 -270 130 -383 155 -68 15 -139 38 -183 61 -101 51 -139 62
-251 79 -188 29 -268 79 -338 214 -74 142 -137 198 -292 257 -123 47 -153 64
-284 166 -236 184 -413 365 -473 485 -11 23 -34 79 -51 124 -17 46 -48 106
-72 137 -57 75 -182 272 -218 347 -17 33 -46 122 -65 197 -51 198 -64 228
-256 569 -70 124 -77 149 -98 368 -28 274 -56 399 -111 489 -28 46 -71 68
-178 93 -200 45 -315 131 -487 364 -99 133 -123 148 -265 165 -126 15 -172 38
-305 152 -138 118 -181 169 -201 233 -18 61 -45 331 -47 480 -2 127 9 166 83
315 67 132 95 167 186 229 43 30 115 89 159 131 44 42 116 104 160 137 44 33
88 69 97 80 32 35 57 108 72 209 9 62 30 142 54 205 22 57 65 181 96 275 55
170 56 171 59 310 3 169 14 195 118 274 38 29 78 66 88 84 35 56 168 476 195
611 43 221 76 357 108 435 17 41 45 120 63 175 35 106 97 264 170 430 24 55
52 130 64 167 26 87 48 128 117 224 67 94 97 150 118 226 21 69 62 138 149
248 54 68 73 101 93 165 35 110 51 132 146 195 107 72 120 97 128 245 5 90 11
121 33 168 34 76 114 153 206 201 191 100 252 238 174 397 -46 93 -99 138
-207 178 -49 17 -102 41 -119 53 -70 50 -175 231 -196 338 -6 30 -22 183 -36
340 -23 262 -41 439 -80 801 -8 75 -15 163 -15 196 0 57 -63 830 -116 1428
-38 427 -28 528 66 674 46 71 99 109 203 146 112 40 155 77 207 176 23 45 78
129 121 185 85 112 107 151 134 234 33 102 72 165 185 292 134 153 179 180
325 199 112 14 147 27 265 94 116 65 163 81 277 95 238 28 937 82 1013 78 100
-5 140 -23 245 -107 39 -32 116 -92 173 -135 129 -99 171 -146 222 -253 52
-110 81 -151 186 -264 48 -52 111 -129 141 -171 69 -98 140 -162 203 -183 42
-14 85 -16 268 -13 254 4 276 10 425 106 51 32 116 72 145 87 101 55 159 136
227 318 19 50 45 122 59 158 13 36 31 117 39 180 18 136 41 192 104 260 56 60
95 82 200 109 109 29 129 37 208 86 96 59 140 73 279 89 65 8 169 21 230 30
160 22 163 22 253 24 45 0 106 -4 135 -10z"/>
<path d="M10625 12424 c-97 -13 -155 -30 -227 -65 -94 -45 -115 -47 -230 -19
-113 27 -204 26 -605 -10 -790 -70 -1022 -90 -1263 -110 -510 -42 -1420 -123
-1624 -145 -157 -17 -203 -33 -301 -109 -40 -31 -84 -54 -130 -68 -100 -30
-137 -51 -183 -103 -29 -34 -44 -61 -52 -99 -17 -82 1 -141 74 -249 35 -51 78
-121 97 -156 37 -70 57 -93 167 -190 87 -76 111 -111 151 -224 62 -177 82
-195 247 -222 76 -12 123 -27 206 -65 59 -28 111 -50 116 -50 29 0 145 -46
188 -76 102 -69 121 -154 64 -284 -57 -131 -51 -293 16 -407 14 -24 51 -71 83
-106 31 -34 88 -102 126 -152 126 -166 141 -176 289 -200 54 -8 137 -30 185
-49 127 -49 176 -57 366 -54 144 1 184 -2 263 -20 105 -25 113 -24 227 28 44
21 120 50 170 66 105 33 268 129 377 220 40 34 92 71 114 82 83 42 207 46 296
9 20 -9 84 -51 142 -96 110 -84 195 -121 275 -121 86 0 137 -26 235 -120 127
-121 139 -124 441 -95 270 26 306 44 408 195 57 85 100 114 220 145 166 42
225 100 303 295 25 63 77 172 115 241 83 151 109 220 109 293 0 47 -8 70 -61
173 -54 105 -60 123 -57 164 8 75 38 112 161 193 62 40 150 94 197 121 112 64
286 180 328 219 48 45 62 76 82 192 23 131 57 196 194 371 125 160 148 208
154 324 4 73 1 91 -17 127 -35 69 -82 93 -205 102 -77 6 -122 16 -168 35 -167
70 -165 70 -298 69 -69 0 -226 -10 -350 -22 -634 -59 -704 -60 -840 -13 l-95
34 -225 2 c-124 2 -238 1 -255 -1z m1912 -304 c74 -45 70 -107 -15 -229 -33
-47 -78 -124 -102 -171 -52 -104 -75 -130 -165 -182 -129 -75 -179 -132 -226
-253 -38 -99 -66 -137 -121 -164 -45 -21 -50 -22 -328 -46 -96 -8 -330 -29
-520 -46 -190 -17 -375 -29 -412 -27 -77 4 -105 20 -155 89 -70 97 -93 117
-165 147 -93 39 -127 67 -187 155 -27 40 -92 114 -145 164 -99 96 -131 144
-142 210 -13 80 34 171 99 192 41 14 325 41 427 41 56 0 83 -5 106 -19 47 -28
132 -130 196 -234 92 -148 105 -164 169 -212 92 -67 144 -79 314 -71 252 13
330 28 397 79 56 43 196 252 240 358 49 121 108 180 203 204 53 13 276 33 390
34 93 1 115 -2 142 -19z m-3423 -195 c105 -53 148 -139 126 -254 -11 -58 -78
-186 -139 -267 -57 -75 -239 -235 -311 -273 -109 -57 -129 -77 -170 -165 -21
-45 -51 -93 -66 -108 -53 -50 -90 -58 -362 -78 -141 -11 -304 -25 -362 -31
-128 -14 -217 -8 -259 17 -18 10 -54 51 -82 91 -59 86 -86 106 -180 138 -72
25 -211 96 -284 145 -22 15 -77 64 -122 108 -72 71 -98 89 -206 142 -184 90
-239 144 -239 236 0 92 70 139 225 154 317 30 402 33 459 16 71 -20 114 -68
153 -168 33 -85 121 -225 168 -264 60 -51 89 -57 232 -50 268 12 441 33 499
59 114 53 239 200 332 393 89 185 107 194 369 191 155 -3 162 -4 219 -32z
m1172 -1209 c27 -8 90 -20 139 -27 87 -11 139 -27 273 -84 61 -25 68 -26 235
-23 208 3 234 -4 367 -97 49 -35 139 -89 199 -120 147 -75 181 -130 131 -212
-27 -44 -79 -68 -201 -92 -86 -17 -128 -32 -244 -91 -77 -38 -160 -74 -185
-80 -79 -17 -373 -42 -423 -35 -27 3 -74 17 -105 31 -102 46 -134 54 -248 64
-134 11 -185 30 -293 110 -110 81 -141 98 -209 115 -74 19 -152 9 -217 -29
-40 -24 -57 -44 -125 -154 -37 -61 -91 -97 -184 -123 -89 -25 -105 -32 -189
-87 -119 -78 -198 -97 -437 -109 -150 -7 -162 -4 -294 54 -66 30 -96 37 -180
43 -56 4 -117 14 -137 23 -96 40 -140 214 -85 333 35 75 87 127 190 191 50 30
112 71 137 89 79 57 152 83 293 105 183 28 259 47 346 85 155 68 193 64 337
-34 162 -111 219 -124 450 -103 222 21 276 43 403 166 47 45 94 87 105 93 28
16 92 15 151 -2z"/>
</g>
</svg>
